<?xml version="1.0" encoding="UTF-8" standalone="no"?>
<!-- Created with Inkscape (http://www.inkscape.org/) -->

<svg
   width="120mm"
   height="95mm"
   viewBox="0 0 120 95"
   version="1.1"
   id="svg5"
   inkscape:version="1.1.2 (0a00cf5339, 2022-02-04)"
   sodipodi:docname="yetic.svg"
   xmlns:inkscape="http://www.inkscape.org/namespaces/inkscape"
   xmlns:sodipodi="http://sodipodi.sourceforge.net/DTD/sodipodi-0.dtd"
   xmlns="http://www.w3.org/2000/svg"
   xmlns:svg="http://www.w3.org/2000/svg">
  <sodipodi:namedview
     id="namedview7"
     pagecolor="#ffffff"
     bordercolor="#666666"
     borderopacity="1.0"
     inkscape:pageshadow="2"
     inkscape:pageopacity="0.0"
     inkscape:pagecheckerboard="0"
     inkscape:document-units="mm"
     showgrid="false"
     inkscape:zoom="0.32337963"
     inkscape:cx="299.95705"
     inkscape:cy="740.6156"
     inkscape:window-width="1366"
     inkscape:window-height="737"
     inkscape:window-x="1024"
     inkscape:window-y="0"
     inkscape:window-maximized="1"
     inkscape:current-layer="layer1"
     units="mm" />
  <defs
     id="defs2" />
  <g
     inkscape:label="Capa 1"
     inkscape:groupmode="layer"
     id="layer1">
    <path
       style="fill:#000000;stroke-width:0.264583"
       d="m 27.424868,90.447024 c 0,-1.71979 0,-1.71979 -1.852084,-1.71979 -1.852083,0 -1.852083,0 -1.852083,-1.85208 0,-1.85208 0,-1.85208 1.087017,-1.85208 1.019259,0 1.076949,-0.0401 0.925518,-0.64347 -0.21581,-0.85985 0.752985,-1.23454 1.305774,-0.50501 0.334394,0.44131 0.369819,0.38148 0.377444,-0.63746 0.0084,-1.12448 0.0084,-1.12448 -1.84367,-1.12448 -1.852083,0 -1.852083,0 -1.852083,-1.98437 0,-1.98438 0,-1.98438 1.86591,-1.98438 2.882887,0 2.806455,-2.72991 -0.07997,-2.85636 -1.785937,-0.0782 -1.785937,-0.0782 -1.785937,-1.90613 0,-1.82791 0,-1.82791 1.785937,-1.90614 2.886428,-0.12645 2.96286,-2.85636 0.07997,-2.85636 -1.86591,0 -1.86591,0 -1.86591,-1.98438 0,-1.98437 0,-1.98437 1.86591,-1.98437 2.882887,0 2.806455,-2.72992 -0.07997,-2.85636 -2.874147,-0.1259 -2.810219,-3.75822 0.06615,-3.75822 1.852084,0 1.852084,0 1.852084,-1.45521 0,-1.4552 0,-1.4552 -1.852084,-1.4552 -1.852083,0 -1.852083,0 -1.852083,-1.98438 0,-1.98437 0,-1.98437 1.741371,-1.98437 1.741371,0 1.741371,0 1.219041,-0.8599 -1.80663,-2.9742 -3.250559,-6.10508 -2.915838,-6.32242 0.193765,-0.12582 1.661988,-0.92982 3.262718,-1.78667 3.353737,-1.79523 7.83331,-4.20719 12.567709,-6.76691 1.81901,-0.98347 4.140729,-2.2343 5.159375,-2.77961 1.018646,-0.54531 2.745052,-1.47128 3.836458,-2.0577 11.062424,-5.94398 16.105226,-8.65178 18.057826,-9.69641 1.2733,-0.68121 2.3151,-1.17427 2.3151,-1.09569 0,0.0786 -0.49358,1.06597 -1.09686,2.1942 -0.60327,1.12823 -2.07536,3.8968 -3.2713,6.15237 -3.800612,7.16804 -5.373912,10.12058 -7.510702,14.09502 -0.45163,0.84002 -0.82114,1.58416 -0.82114,1.65364 0,0.0695 1.905,0.12633 4.23333,0.12633 4.233342,0 4.233342,0 4.233342,0.92604 0,0.92604 0,0.92604 -4.746892,0.92604 -2.87919,0 -4.811224,0.10411 -4.910404,0.26459 -0.10375,0.16785 -3.398242,0.26458 -9.011457,0.26458 -8.856295,0 -10.994346,0.49429 -8.583343,1.98437 0.154363,0.0954 0.264583,-0.17364 0.264583,-0.64584 0,-0.80936 0,-0.80936 8.334376,-0.80936 4.583906,0 8.332701,0.0893 8.330651,0.19843 -0.002,0.10914 -0.478294,1.06906 -1.058332,2.13314 -1.054611,1.93471 -1.054611,1.93471 -1.033722,18.38853 0.01148,9.04961 0.08094,16.30501 0.154339,16.12311 0.153856,-0.3813 0.59585,-0.42086 1.103887,-0.0988 0.280366,0.17772 0.185015,0.55674 -0.463021,1.84049 -0.741526,1.46896 -0.816094,1.84702 -0.816094,4.13776 0,2.52108 0,2.52108 -12.435417,2.52108 -12.435417,0 -12.435417,0 -12.435417,-1.71979 z m 33.86667,-9.25201 c 0,-10.97181 0,-10.97181 -3.048222,-11.04635 -3.048224,-0.0745 -3.048224,-0.0745 -3.097774,-3.64642 l -0.0495,-3.57187 10.241526,-0.0692 10.24151,-0.0693 v 3.70728 c 0,3.70727 0,3.70727 -3.0427,3.70727 -3.04271,0 -3.04271,0 -3.04271,5.0983 0,5.0983 0,5.0983 -1.5875,5.97103 -1.5875,0.87273 -1.5875,0.87273 -1.5875,5.8819 0,5.00917 0,5.00917 -2.51354,5.00917 -2.51355,0 -2.51355,0 -2.51355,-10.9718 z m 13.49375,-15.23951 c 0,-1.86965 0,-1.86965 -0.7276,-1.78593 -1.29203,0.14866 -1.23654,3.65559 0.0578,3.65559 0.65344,0 0.66976,-0.0456 0.66976,-1.86966 z m -7.27237,25.95266 c -0.19238,-0.31128 -0.14349,-7.98978 0.0557,-8.75156 0.11767,-0.44998 1.28528,-1.30853 1.77956,-1.30853 0.08,0 0.14543,2.32172 0.14543,5.15937 0,5.04114 -0.74884,6.893928 -1.98071,4.90072 z m 33.400252,-1.52728 c -1.77147,-1.78594 -1.77147,-1.78594 0.45965,-4.16719 3.48813,-3.72285 3.45486,-14.12696 -0.0565,-17.65462 -2.30853,-2.31927 -2.30853,-2.31927 -0.60296,-4.04013 2.71931,-2.74369 12.23183,-2.65762 14.89803,0.13481 2.19751,2.30154 2.82679,8.99224 0.84574,8.99224 -0.88194,0 -0.92604,-0.0441 -0.92604,-0.92604 0,-0.81139 -0.0819,-0.92604 -0.66146,-0.92604 -0.57956,0 -0.66146,0.11465 -0.66146,0.92604 0,0.81139 -0.0819,0.92604 -0.66146,0.92604 -0.57956,0 -0.66145,-0.11465 -0.66145,-0.92604 0,-0.81139 -0.0819,-0.92604 -0.66146,-0.92604 -0.57957,0 -0.66146,0.11465 -0.66146,0.92604 0,2.09189 -1.54777,1.28112 -1.64156,-0.8599 -0.0782,-1.78593 -0.0782,-1.78593 -1.86417,-1.86417 -1.78594,-0.0782 -1.78594,-0.0782 -1.78594,7.35427 0,7.43251 0,7.43251 1.78594,7.35428 1.78594,-0.0782 1.78594,-0.0782 1.86417,-1.86418 0.0778,-1.77497 0.0829,-1.78593 0.84313,-1.78593 0.66957,0 0.77524,-0.10717 0.84781,-0.8599 0.0632,-0.65587 0.20847,-0.85989 0.61208,-0.85989 0.40361,0 0.54884,0.20402 0.61207,0.85989 0.12979,1.34606 1.3723,1.2695 1.3723,-0.0845 0,-1.33115 1.14437,-1.25518 1.27354,0.0845 0.0759,0.78725 0.15973,0.8599 0.99219,0.8599 2.05044,0 1.30834,6.61833 -1.01772,9.07626 -2.83804,2.998938 -11.66596,3.150868 -14.54305,0.2503 z m 11.97213,-8.53281 c 0,-0.67028 -0.1029,-0.79375 -0.66146,-0.79375 -0.55857,0 -0.66146,0.12347 -0.66146,0.79375 0,0.67027 0.10289,0.79375 0.66146,0.79375 0.55856,0 0.66146,-0.12348 0.66146,-0.79375 z m 2.64583,0 c 0,-0.67028 -0.10289,-0.79375 -0.66146,-0.79375 -0.55856,0 -0.66146,0.12347 -0.66146,0.79375 0,0.67027 0.1029,0.79375 0.66146,0.79375 0.55857,0 0.66146,-0.12348 0.66146,-0.79375 z m -35.718752,6.34999 c 0,-3.70416 0,-3.70416 1.85208,-3.70416 1.85208,0 1.85208,0 1.85208,-7.27604 0,-7.27604 0,-7.27604 -1.85208,-7.27604 -1.85208,0 -1.85208,0 -1.85208,-3.73131 0,-4.91861 2.63745,-5.39594 6.79424,-1.22962 2.30981,2.3151 2.30981,2.3151 5.16612,2.3151 2.85631,0 2.85631,0 2.85631,1.32292 0,1.32291 0,1.32291 -1.85209,1.32291 -1.85208,0 -1.85208,0 -1.85208,7.27604 0,7.27604 0,7.27604 1.85208,7.27604 1.85209,0 1.85209,0 1.85209,3.70416 0,3.70417 0,3.70417 -1.05834,3.70417 -1.05833,0 -1.05833,0 -1.05833,-1.45521 0,-1.37583 -0.0361,-1.45521 -0.66146,-1.45521 -0.62538,0 -0.66146,0.0794 -0.66146,1.45521 0,1.37583 -0.0361,1.45521 -0.66146,1.45521 -0.62538,0 -0.66145,-0.0794 -0.66145,-1.45521 0,-1.37583 -0.0361,-1.45521 -0.66146,-1.45521 -0.62538,0 -0.66146,0.0794 -0.66146,1.45521 0,1.45521 0,1.45521 -4.36563,1.45521 -4.36562,0 -4.36562,0 -4.36562,-3.70417 z m 12.76614,-20.55963 c -0.32742,-0.0631 -0.8632,-0.0631 -1.19062,0 -0.32742,0.0631 -0.0595,0.11467 0.59531,0.11467 0.65485,0 0.92274,-0.0516 0.59531,-0.11467 z m 6.288302,9.91016 c -0.002,-5.20237 0.092,-9.45885 0.20981,-9.45885 3.81407,0 5.11441,13.48487 1.64227,17.03079 -1.84764,1.88691 -1.84764,1.88691 -1.85208,-7.57194 z m -7.941942,-10.78176 c 0,-0.14552 0.47625,-0.26459 1.05833,-0.26459 0.58209,0 1.05834,0.11907 1.05834,0.26459 0,0.14552 -0.47625,0.26458 -1.05834,0.26458 -0.58208,0 -1.05833,-0.11906 -1.05833,-0.26458 z m -3.24281,-2.37284 c -1.91657,-1.84368 -1.91657,-1.84368 2.5152,-1.85209 4.43178,-0.008 4.43178,-0.008 4.43178,1.84368 0,2.84733 -3.99079,2.85216 -6.94698,0.008 z m 4.89645,1.39236 c -0.32742,-0.0631 -0.8632,-0.0631 -1.19062,0 -0.32742,0.0631 -0.0595,0.11466 0.59531,0.11466 0.65485,0 0.92274,-0.0516 0.59531,-0.11466 z m -28.47638,-6.26539 c -0.0906,-0.52592 -0.2313,-1.34317 -0.31262,-1.81611 -0.28146,-1.63689 4.72913,-19.16632 5.80316,-20.30218 0.92979,-0.98333 2.50165,-5.93022 2.16394,-6.81027 -0.0855,-0.22291 0.006,-0.53899 0.20244,-0.7024 0.19687,-0.16341 1.4717,-4.52383 2.83295,-9.68982 2.68656,-10.19551 2.5654,-9.80778 2.89694,-9.27135 0.25664,0.41526 0.55773,0.2152 4.50468,-2.9930702 2.16247,-1.7577696 2.65675,-2.3507399 2.19658,-2.6351399 -0.11768,-0.0727 -1.64232,0.9845303 -3.38809,2.3494599 -1.74576,1.36493 -3.27144,2.4849002 -3.39038,2.4888202 -0.49698,0.0164 0.20131,-1.2416602 1.09749,-1.9772502 2.4623,-2.0210496 2.85376,-2.4649799 2.34646,-2.6609699 -0.32715,-0.1264 -0.80941,0.0835 -1.53889,0.6696903 -1.27625,1.0256196 -1.3013,1.0079596 -0.83473,-0.5884103 0.3039,-1.03978 38.764662,-2.22314 38.696802,-1.19062 -0.002,0.0364 -0.1735,2.8466999 -0.38023,6.2451501 -0.20674,3.39846 -0.43522,6.23835 -0.50774,6.31087 -0.0725,0.0725 -6.25754,0.19721 -13.74449,0.2771 -13.612642,0.14525 -13.612642,0.14525 -13.770342,1.29572 -0.0867,0.63276 -0.23241,1.44821 -0.32375,1.81211 -0.16606,0.66164 -0.16606,0.66164 6.879122,0.66164 7.04519,0 7.04519,0 6.92161,0.59532 -0.068,0.32742 -0.51189,3.76417 -0.98649,7.63722 -0.984,8.03021 -0.0273,7.37787 -10.819752,7.37787 -5.22386,0 -5.22386,0 -5.51735,1.65365 -0.16142,0.9095 -0.36718,1.92557 -0.45724,2.25793 -0.18041,0.66577 -0.99021,0.65958 23.516722,0.17985 7.07761,-0.13855 7.07761,-0.13855 7.07761,1.28578 0,2.93537 -0.3014,4.67695 -0.8094,4.67695 -0.25818,0 -0.52948,0.14883 -0.60288,0.33073 -0.10676,0.26459 -0.13762,0.26459 -0.15434,0 -0.0705,-1.1156 -8.45387,-0.3411 -8.59177,0.79375 -0.45453,3.74055 -0.9603,3.37344 4.64761,3.37344 5.0222,0 5.0222,0 4.85789,3.37343 -0.27676,5.68198 0.29922,5.09272 -4.9815,5.09641 -2.50364,0.002 -9.3741,0.11392 -15.267702,0.24926 -30.54266,0.70137 -30.07944,0.70679 -30.26232,-0.35456 z m 33.262122,-8.2984 c 1.03526,-1.70324 0.3844,-4.29947 -1.07785,-4.29947 -1.584332,0 -2.186532,1.12531 -2.186532,4.08586 0,0.43772 3.008502,0.63459 3.264382,0.21361 z m 3.175,0 c 0.74475,-1.22528 0.43432,-4.29947 -0.43415,-4.29947 -1.04134,0 -1.06003,0.0399 -1.39484,2.97656 -0.1626,1.42624 1.17717,2.3953 1.82899,1.32291 z m 1.32902,-0.26458 c 0.55497,-1.95945 0.41197,-5.07002 -0.18842,-4.09857 -0.29511,0.47749 -0.49534,4.56159 -0.22364,4.56159 0.1545,0 0.33993,-0.20836 0.41206,-0.46302 z m 2.51997,-0.13229 c 0.52775,-1.42097 0.53102,-4.16719 0.005,-4.16719 -0.53829,0 -0.6463,0.32306 -0.90516,2.70737 -0.214,1.97112 0.36287,2.90659 0.90021,1.45982 z M 70.862038,39.779344 c 0.85268,-3.27422 1.62492,-6.29078 1.71608,-6.70347 0.17795,-0.80555 0.23714,-0.84265 1.74415,-1.09311 1.46391,-0.24329 1.40132,-1.05921 -0.0661,-0.86239 -0.79986,0.10728 -1.05834,0.0512 -1.05834,-0.22974 0,-0.67373 -0.73278,-0.38687 -0.90915,0.3559 -0.35603,1.49944 -3.65828,13.96235 -3.79161,14.3098 -0.0921,0.24009 0.0217,0.33077 0.33787,0.26911 0.38375,-0.0748 0.77941,-1.25492 2.02714,-6.0461 z M 84.664748,8.6573238 c 3.49124,-2.7637896 3.44382,-2.7147296 3.11897,-3.2276899 -0.31196,-0.4926 -6.9609,4.8129001 -6.74305,5.3806001 0.21703,0.56557 0.10916,0.62964 3.62408,-2.1529102 z m 3.35413,0.0408 c 3.4833,-2.7888396 3.56632,-2.8763496 3.09782,-3.2651699 -0.45594,-0.3784 -6.85404,4.8102601 -6.63509,5.3808501 0.21588,0.56257 0.12189,0.61879 3.53727,-2.1156802 z m 6.50807,-3.2654799 c -0.34453,-0.34453 -2.52169,1.2171103 -6.62034,4.7486501 -2.38293,2.05321 1.00551,0.50366 3.70164,-1.6927902 2.83572,-2.3101696 3.24055,-2.7340099 2.9187,-3.0558599 z M 113.49014,49.701234 c 0.002,-0.7276 0.0534,-0.99386 0.11418,-0.59167 0.0608,0.40218 0.0592,0.99749 -0.004,1.32291 -0.0628,0.32542 -0.11255,-0.004 -0.11057,-0.73124 z m -90.786024,-6.68075 c -0.975804,-1.87123 -5.294424,-10.02786 -5.988706,-11.31093 -0.472459,-0.87312 -1.600565,-3.00121 -2.506909,-4.72909 -0.906342,-1.72787 -1.874866,-3.51381 -2.152275,-3.96874 -0.842318,-1.38136 -0.726292,-1.48862 1.610308,-1.48862 2.116667,0 2.116667,0 2.116667,-2.91041 0,-2.91042 0,-2.91042 -3.67177,-2.91042 -2.8379887,0 -3.7421227,-0.0848 -3.9815877,-0.37331 C 7.7048653,14.816904 2.5540334,5.1065739 2.5540334,4.8174739 c 0,-1.97266 28.2493176,0.22823 29.3398216,2.2858499 0.694111,1.30968 1.680999,3.1551502 2.193084,4.1010402 0.512085,0.94588 1.683948,3.14854 2.60414,4.89478 3.284062,6.23217 2.936703,5.91744 4.088223,3.70417 0.454268,-0.87313 1.371563,-2.59953 2.038435,-3.83646 0.666869,-1.23692 1.813015,-3.38005 2.546987,-4.76249 3.859941,-7.2702601 1.732585,-6.4738701 17.498674,-6.5507601 9.80754,-0.0478 14.03856,0.0166 14.03856,0.21367 0,0.15517 -0.27678,0.78129 -0.61507,1.3913803 -0.33829,0.6100896 -1.97342,3.6470096 -3.63362,6.7487198 -3.01855,5.63948 -3.01855,5.63948 -7.25628,7.87764 -2.33076,1.23099 -4.952112,2.63381 -5.825242,3.11738 -0.87312,0.48357 -3.37344,1.83429 -5.556254,3.00161 -2.182811,1.16731 -4.683123,2.51016 -5.556248,2.98411 -24.808377,13.46652 -25.378335,13.75493 -25.755128,13.03237 z m -4.59686,-24.34165 c -0.120298,-4.55627 -1.794889,-4.63362 -1.794889,-0.0829 0,2.92718 0,2.92718 0.934993,2.92718 0.934992,0 0.934992,0 0.859896,-2.84427 z m 3.279441,0.59531 c 0.02598,-1.23692 0.05575,-2.51684 0.06615,-2.84427 0.01344,-0.42319 -0.153223,-0.61975 -0.576413,-0.67986 -0.5866,-0.0833 -0.595313,-0.0417 -0.595313,2.84427 0,4.01227 1.022364,4.64096 1.10558,0.67986 z m 3.921504,-0.63592 c 0,-2.67245 -1.501415,-4.25841 -2.800303,-2.958 -1.041013,1.04224 0.06415,5.84288 1.345095,5.84288 1.455208,0 1.455208,0 1.455208,-2.88488 z m 7.14375,-0.0255 c 0,-2.91042 0,-2.91042 -2.513541,-2.91042 -2.513542,0 -2.513542,0 -2.513542,2.91042 0,2.91041 0,2.91041 2.513542,2.91041 2.513541,0 2.513541,0 2.513541,-2.91041 z"
       id="path263" />
  </g>
</svg>
